<svg width="34" height="33" viewBox="0 0 34 33" fill="none" xmlns="http://www.w3.org/2000/svg">
<g opacity="0.6" clip-path="url(#clip0_403_1725)">
<path d="M19.2328 23.7475L11.9936 19.9153C11.2987 20.5848 10.4152 21.0396 9.45438 21.2225C8.49357 21.4053 7.49849 21.3079 6.59461 20.9426C5.69073 20.5773 4.9185 19.9605 4.37529 19.1698C3.83208 18.3792 3.54221 17.4502 3.54221 16.4998C3.54221 15.5495 3.83208 14.6205 4.37529 13.8299C4.9185 13.0392 5.69073 12.4224 6.59461 12.0571C7.49849 11.6918 8.49357 11.5944 9.45438 11.7772C10.4152 11.96 11.2987 12.4149 11.9936 13.0843L19.2328 9.25222C18.9845 8.12161 19.1638 6.94203 19.738 5.9292C20.3121 4.91636 21.2427 4.13795 22.3595 3.73632C23.4764 3.33468 24.7048 3.33666 25.8203 3.74189C26.9358 4.14712 27.8637 4.92852 28.4343 5.9432C29.005 6.95788 29.1803 8.13803 28.9282 9.26783C28.676 10.3976 28.0133 11.4016 27.0612 12.0961C26.1091 12.7907 24.9312 13.1293 23.7429 13.0502C22.5547 12.9711 21.4355 12.4795 20.59 11.6653L13.3508 15.4975C13.4952 16.1584 13.4952 16.8413 13.3508 17.5022L20.59 21.3343C21.4355 20.5201 22.5547 20.0286 23.7429 19.9494C24.9312 19.8703 26.1091 20.209 27.0612 20.9036C28.0133 21.5981 28.676 22.6021 28.9282 23.7319C29.1803 24.8617 29.005 26.0418 28.4343 27.0565C27.8637 28.0712 26.9358 28.8526 25.8203 29.2578C24.7048 29.663 23.4764 29.665 22.3595 29.2634C21.2427 28.8617 20.3121 28.0833 19.738 27.0705C19.1638 26.0577 18.9845 24.8781 19.2328 23.7475Z" fill="#12275C"/>
</g>
<defs>
<clipPath id="clip0_403_1725">
<rect width="34" height="33" fill="white"/>
</clipPath>
</defs>
</svg>
