<svg width="36" height="35" viewBox="0 0 36 35" fill="none" xmlns="http://www.w3.org/2000/svg">
<path d="M3.3645 9.99546L17.235 1.91046C17.4681 1.77447 17.7349 1.70264 18.0068 1.70264C18.2786 1.70264 18.5454 1.77447 18.7785 1.91046L32.6355 9.99692C32.7467 10.0617 32.8387 10.1534 32.9026 10.263C32.9665 10.3727 33 10.4965 33 10.6225V29.1667C33 29.5535 32.842 29.9244 32.5607 30.1979C32.2794 30.4714 31.8978 30.625 31.5 30.625H4.5C4.10218 30.625 3.72064 30.4714 3.43934 30.1979C3.15804 29.9244 3 29.5535 3 29.1667V10.6211C2.99997 10.4951 3.03354 10.3712 3.09742 10.2616C3.1613 10.1519 3.25332 10.0602 3.3645 9.99546ZM27.519 12.0225L18.0915 19.9544L8.4705 12.0138L6.5295 14.2363L18.1095 23.7957L29.481 14.229L27.519 12.0225Z" fill="url(#paint0_linear_224_1579)"/>
<defs>
<linearGradient id="paint0_linear_224_1579" x1="18" y1="1.70264" x2="18" y2="30.625" gradientUnits="userSpaceOnUse">
<stop offset="0.572917" stop-color="#0769C5"/>
<stop offset="1" stop-color="#056DCC" stop-opacity="0.79"/>
</linearGradient>
</defs>
</svg>
