<svg width="36" height="36" viewBox="0 0 36 36" fill="none" xmlns="http://www.w3.org/2000/svg">
<path d="M9.6825 28.5L3 33.75V6C3 5.60218 3.15804 5.22064 3.43934 4.93934C3.72064 4.65804 4.10218 4.5 4.5 4.5H31.5C31.8978 4.5 32.2794 4.65804 32.5607 4.93934C32.842 5.22064 33 5.60218 33 6V27C33 27.3978 32.842 27.7794 32.5607 28.0607C32.2794 28.342 31.8978 28.5 31.5 28.5H9.6825ZM16.5 21V24H19.5V21H16.5ZM12.8505 13.2195L15.7935 13.809C15.877 13.3911 16.0775 13.0056 16.3715 12.6972C16.6656 12.3888 17.0412 12.1703 17.4546 12.0671C17.8681 11.9638 18.3023 11.9801 18.7068 12.114C19.1114 12.2478 19.4696 12.4939 19.7397 12.8234C20.0099 13.1529 20.181 13.5523 20.233 13.9753C20.2851 14.3982 20.2159 14.8272 20.0337 15.2124C19.8514 15.5975 19.5635 15.923 19.2035 16.151C18.8435 16.3789 18.4261 16.5 18 16.5H16.5V19.5H18C18.9942 19.4997 19.9678 19.2171 20.8076 18.6851C21.6475 18.1532 22.319 17.3937 22.7442 16.495C23.1693 15.5963 23.3305 14.5954 23.2091 13.6087C23.0876 12.622 22.6885 11.6901 22.0582 10.9213C21.4279 10.1525 20.5922 9.5785 19.6484 9.26604C18.7046 8.95358 17.6915 8.91552 16.727 9.15627C15.7624 9.39702 14.886 9.9067 14.1998 10.626C13.5135 11.3453 13.0456 12.2447 12.8505 13.2195Z" fill="url(#paint0_linear_224_1575)"/>
<defs>
<linearGradient id="paint0_linear_224_1575" x1="18" y1="4.5" x2="18" y2="33.75" gradientUnits="userSpaceOnUse">
<stop offset="0.572917" stop-color="#0769C5"/>
<stop offset="1" stop-color="#056DCC" stop-opacity="0.79"/>
</linearGradient>
</defs>
</svg>
