<svg width="36" height="36" viewBox="0 0 36 36" fill="none" xmlns="http://www.w3.org/2000/svg">
<path d="M30.4465 22.0885H28.8588V17.6147C28.8588 17.2154 28.7092 16.8326 28.4428 16.5503C28.1765 16.268 27.8152 16.1094 27.4386 16.1094H18.9468V13.3554H21.0079C21.3846 13.3554 21.7458 13.1968 22.0122 12.9145C22.2785 12.6322 22.4282 12.2493 22.4282 11.8501V6.71207C22.4282 6.31284 22.2785 5.92997 22.0122 5.64767C21.7458 5.36538 21.3846 5.20679 21.0079 5.20679H14.9921C14.6155 5.20679 14.2542 5.36538 13.9879 5.64767C13.7215 5.92997 13.5719 6.31284 13.5719 6.71207V11.8501C13.5719 12.2493 13.7215 12.6322 13.9879 12.9145C14.2542 13.1968 14.6155 13.3554 14.9921 13.3554H17.0532V16.1094H8.56149C8.18482 16.1094 7.82358 16.268 7.55724 16.5503C7.2909 16.8326 7.14127 17.2154 7.14127 17.6147V22.091H5.55358C5.17692 22.091 4.81568 22.2496 4.54933 22.5319C4.28299 22.8142 4.13336 23.197 4.13336 23.5963V28.2902C4.13336 28.6894 4.28299 29.0723 4.54933 29.3546C4.81568 29.6369 5.17692 29.7955 5.55358 29.7955H10.6232C10.9998 29.7955 11.3611 29.6369 11.6274 29.3546C11.8938 29.0723 12.0434 28.6894 12.0434 28.2902V23.5938C12.0434 23.1945 11.8938 22.8117 11.6274 22.5294C11.3611 22.2471 10.9998 22.0885 10.6232 22.0885H9.03489V18.1164H17.0532V22.091H15.4655C15.0889 22.091 14.7276 22.2496 14.4613 22.5319C14.1949 22.8142 14.0453 23.197 14.0453 23.5963V28.2902C14.0453 28.6894 14.1949 29.0723 14.4613 29.3546C14.7276 29.6369 15.0889 29.7955 15.4655 29.7955H20.5345C20.9112 29.7955 21.2724 29.6369 21.5388 29.3546C21.8051 29.0723 21.9547 28.6894 21.9547 28.2902V23.5938C21.9547 23.1945 21.8051 22.8117 21.5388 22.5294C21.2724 22.2471 20.9112 22.0885 20.5345 22.0885H18.9468V18.1164H26.9652V22.091H25.3769C25.0002 22.091 24.639 22.2496 24.3726 22.5319C24.1063 22.8142 23.9567 23.197 23.9567 23.5963V28.2902C23.9567 28.6894 24.1063 29.0723 24.3726 29.3546C24.639 29.6369 25.0002 29.7955 25.3769 29.7955H30.4465C30.8231 29.7955 31.1844 29.6369 31.4507 29.3546C31.7171 29.0723 31.8667 28.6894 31.8667 28.2902V23.5938C31.8667 23.1945 31.7171 22.8117 31.4507 22.5294C31.1844 22.2471 30.8231 22.0885 30.4465 22.0885Z" fill="url(#paint0_linear_224_1586)"/>
<defs>
<linearGradient id="paint0_linear_224_1586" x1="18" y1="5.20679" x2="18" y2="29.7955" gradientUnits="userSpaceOnUse">
<stop offset="0.572917" stop-color="#0769C5"/>
<stop offset="1" stop-color="#056DCC" stop-opacity="0.79"/>
</linearGradient>
</defs>
</svg>
