<svg width="36" height="36" viewBox="0 0 36 36" fill="none" xmlns="http://www.w3.org/2000/svg">
<path d="M23.103 31.5V21.051H26.6025L27.126 16.989H23.103V14.397C23.103 13.221 23.43 12.4185 25.116 12.4185H27.267V8.7855C26.2257 8.67502 25.1791 8.62144 24.132 8.625C21.0315 8.625 18.909 10.518 18.909 13.995V16.989H15.402V21.051H18.909V31.5H6C5.60218 31.5 5.22064 31.342 4.93934 31.0607C4.65804 30.7794 4.5 30.3978 4.5 30V6C4.5 5.60218 4.65804 5.22064 4.93934 4.93934C5.22064 4.65804 5.60218 4.5 6 4.5H30C30.3978 4.5 30.7794 4.65804 31.0607 4.93934C31.342 5.22064 31.5 5.60218 31.5 6V30C31.5 30.3978 31.342 30.7794 31.0607 31.0607C30.7794 31.342 30.3978 31.5 30 31.5H23.103V31.5Z" fill="url(#paint0_linear_224_1583)"/>
<defs>
<linearGradient id="paint0_linear_224_1583" x1="18" y1="4.5" x2="18" y2="31.5" gradientUnits="userSpaceOnUse">
<stop offset="0.572917" stop-color="#0769C5"/>
<stop offset="1" stop-color="#056DCC" stop-opacity="0.79"/>
</linearGradient>
</defs>
</svg>
