<svg width="63" height="20" viewBox="0 0 63 20" fill="none" xmlns="http://www.w3.org/2000/svg">
<path d="M59.6822 0L3 0C1.34315 0 0 1.34315 0 3L0 17C0 18.6569 1.34315 20 3 20L59.6822 20C61.339 20 62.6822 18.6569 62.6822 17V3C62.6822 1.34315 61.339 0 59.6822 0Z" fill="url(#paint0_linear_224_1458)"/>
<path d="M16.9374 4.7H19.7041V16H16.9374V4.7ZM26.5498 16.1667C25.872 16.1667 25.2776 16.0889 24.7665 15.9333C24.2609 15.7722 23.8304 15.5528 23.4748 15.275C23.1192 14.9972 22.8359 14.6667 22.6248 14.2833C22.4137 13.8944 22.2692 13.4694 22.1915 13.0083H24.1165C24.1831 13.2917 24.2804 13.5556 24.4081 13.8C24.5359 14.0444 24.697 14.2583 24.8915 14.4417C25.0915 14.6194 25.3248 14.7611 25.5915 14.8667C25.8637 14.9667 26.1776 15.0167 26.5331 15.0167C26.7665 15.0167 26.997 14.9917 27.2248 14.9417C27.4581 14.8917 27.6665 14.8111 27.8498 14.7C28.0331 14.5833 28.1804 14.4361 28.2915 14.2583C28.4026 14.075 28.4581 13.85 28.4581 13.5833C28.4581 13.25 28.372 12.9528 28.1998 12.6917C28.0276 12.4306 27.7998 12.1944 27.5165 11.9833C27.2331 11.7667 26.9109 11.5667 26.5498 11.3833C26.1887 11.2 25.8192 11.0167 25.4415 10.8333C25.0637 10.6444 24.6942 10.4472 24.3331 10.2417C23.972 10.0361 23.6498 9.80833 23.3665 9.55833C23.0831 9.30278 22.8554 9.01667 22.6831 8.7C22.5109 8.37778 22.4248 8.01111 22.4248 7.6C22.4248 7.15 22.522 6.73611 22.7165 6.35833C22.9165 5.975 23.2026 5.64444 23.5748 5.36667C23.947 5.08333 24.4026 4.86389 24.9415 4.70833C25.4804 4.54722 26.0942 4.46667 26.7831 4.46667C27.3498 4.46667 27.8637 4.54444 28.3248 4.7C28.7859 4.85556 29.1915 5.07222 29.5415 5.35C29.897 5.62222 30.1942 5.94444 30.4331 6.31667C30.672 6.68333 30.8554 7.07778 30.9831 7.5H29.2415C29.1415 7.23333 29.0248 6.97778 28.8915 6.73333C28.7581 6.48889 28.5942 6.275 28.3998 6.09167C28.2054 5.90833 27.9692 5.76389 27.6915 5.65833C27.4137 5.54722 27.0831 5.49167 26.6998 5.49167C26.3387 5.49167 26.0331 5.53889 25.7831 5.63333C25.5387 5.72778 25.3415 5.85 25.1915 6C25.0415 6.14444 24.9331 6.30833 24.8665 6.49167C24.7998 6.66944 24.7665 6.84444 24.7665 7.01667C24.7665 7.31667 24.8554 7.58889 25.0331 7.83333C25.2109 8.07778 25.4442 8.30556 25.7331 8.51667C26.0276 8.72778 26.3609 8.93056 26.7331 9.125C27.1054 9.31389 27.4831 9.50556 27.8665 9.7C28.2554 9.89444 28.6359 10.1 29.0081 10.3167C29.3804 10.5278 29.7109 10.7611 29.9998 11.0167C30.2942 11.2722 30.5304 11.5556 30.7081 11.8667C30.8859 12.1778 30.9748 12.5278 30.9748 12.9167C30.9748 13.3778 30.8804 13.8056 30.6915 14.2C30.5026 14.5944 30.222 14.9389 29.8498 15.2333C29.4776 15.5222 29.0137 15.75 28.4581 15.9167C27.9081 16.0833 27.272 16.1667 26.5498 16.1667ZM39.6235 16.25C38.7124 16.25 37.8624 16.1028 37.0735 15.8083C36.2846 15.5139 35.6013 15.1028 35.0235 14.575C34.4457 14.0417 33.9902 13.4111 33.6568 12.6833C33.3291 11.95 33.1652 11.1472 33.1652 10.275C33.1652 9.41944 33.3291 8.63611 33.6568 7.925C33.9902 7.20833 34.4457 6.59444 35.0235 6.08333C35.6013 5.57222 36.2846 5.175 37.0735 4.89167C37.8624 4.60833 38.7124 4.46667 39.6235 4.46667C40.5346 4.46667 41.3818 4.61111 42.1652 4.9C42.9541 5.18333 43.6374 5.58055 44.2152 6.09167C44.7985 6.60278 45.2568 7.21389 45.5902 7.925C45.9235 8.63056 46.0902 9.40556 46.0902 10.25C46.0902 10.85 46.0152 11.4167 45.8652 11.95C45.7152 12.4778 45.5013 12.9639 45.2235 13.4083C44.9457 13.8528 44.6124 14.25 44.2235 14.6C43.8346 14.95 43.3985 15.2472 42.9152 15.4917C42.4374 15.7361 41.9207 15.9222 41.3652 16.05C40.8096 16.1833 40.2291 16.25 39.6235 16.25ZM39.6235 15.3C40.1735 15.3 40.6596 15.175 41.0818 14.925C41.5041 14.6694 41.8568 14.3194 42.1402 13.875C42.4235 13.4306 42.6374 12.9028 42.7818 12.2917C42.9318 11.675 43.0068 11.0028 43.0068 10.275C43.0068 9.55833 42.9318 8.90278 42.7818 8.30833C42.6374 7.71389 42.4235 7.20278 42.1402 6.775C41.8568 6.34722 41.5041 6.01389 41.0818 5.775C40.6596 5.53611 40.1735 5.41667 39.6235 5.41667C39.0679 5.41667 38.5791 5.53611 38.1568 5.775C37.7346 6.01389 37.3818 6.34722 37.0985 6.775C36.8152 7.20278 36.6013 7.71389 36.4568 8.30833C36.3124 8.90278 36.2402 9.55833 36.2402 10.275C36.2402 11.0028 36.3124 11.675 36.4568 12.2917C36.6013 12.9028 36.8152 13.4306 37.0985 13.875C37.3818 14.3194 37.7346 14.6694 38.1568 14.925C38.5791 15.175 39.0679 15.3 39.6235 15.3Z" fill="white"/>
<defs>
<linearGradient id="paint0_linear_224_1458" x1="31.3411" y1="0" x2="31.3411" y2="20" gradientUnits="userSpaceOnUse">
<stop offset="0.572917" stop-color="#0769C5"/>
<stop offset="1" stop-color="#056DCC" stop-opacity="0.79"/>
</linearGradient>
</defs>
</svg>
