<svg width="63" height="20" viewBox="0 0 63 20" fill="none" xmlns="http://www.w3.org/2000/svg">
<path d="M59.6822 0L3 0C1.34315 0 0 1.34315 0 3L0 17C0 18.6569 1.34315 20 3 20L59.6822 20C61.339 20 62.6822 18.6569 62.6822 17V3C62.6822 1.34315 61.339 0 59.6822 0Z" fill="#687493"/>
<path d="M17.8676 4.7H20.6343V16H17.8676V4.7ZM31.905 4.7V5.66667H26.2383V9.39167L30.9466 9.39167V10.3583L26.2383 10.3583V14.8417L31.905 14.8417V16L23.4633 16V4.7H31.905ZM36.4983 10.3417C36.4983 11.075 36.6094 11.7222 36.8316 12.2833C37.0538 12.8444 37.3483 13.3167 37.7149 13.7C38.0816 14.0778 38.5038 14.3667 38.9816 14.5667C39.4594 14.7611 39.9566 14.8583 40.4733 14.8583C40.8677 14.8583 41.2344 14.7917 41.5733 14.6583C41.9177 14.5194 42.2372 14.3333 42.5316 14.1C42.8316 13.8667 43.1122 13.5972 43.3733 13.2917C43.6344 12.9861 43.8844 12.6639 44.1233 12.325L45.2816 13.175C45.0316 13.575 44.7288 13.9611 44.3733 14.3333C44.0233 14.7056 43.6288 15.0333 43.1899 15.3167C42.7511 15.6 42.2733 15.8278 41.7566 16C41.2399 16.1667 40.6927 16.25 40.1149 16.25C39.1427 16.25 38.2455 16.1083 37.4233 15.825C36.6066 15.5417 35.9011 15.1417 35.3066 14.625C34.7122 14.1083 34.2483 13.4889 33.9149 12.7667C33.5816 12.0389 33.4149 11.2306 33.4149 10.3417C33.4149 9.48056 33.5733 8.68889 33.8899 7.96667C34.2066 7.24444 34.6511 6.62222 35.2233 6.1C35.8011 5.57222 36.4899 5.16111 37.2899 4.86667C38.0955 4.57222 38.9844 4.425 39.9566 4.425C40.6066 4.425 41.2011 4.50278 41.7399 4.65833C42.2788 4.80833 42.7677 5.01944 43.2066 5.29167C43.6511 5.55833 44.0455 5.88056 44.3899 6.25833C44.7399 6.63056 45.0483 7.04167 45.3149 7.49167L44.1483 8.30833C43.9094 7.96944 43.6483 7.65 43.3649 7.35C43.0872 7.05 42.7899 6.78889 42.4733 6.56667C42.1566 6.33889 41.8233 6.16111 41.4733 6.03333C41.1233 5.9 40.7594 5.83333 40.3816 5.83333C39.8649 5.83333 39.3705 5.93056 38.8983 6.125C38.4316 6.31944 38.0205 6.60833 37.6649 6.99167C37.3094 7.36944 37.0261 7.83889 36.8149 8.4C36.6038 8.96111 36.4983 9.60833 36.4983 10.3417Z" fill="white"/>
</svg>
