<svg width="63" height="20" viewBox="0 0 63 20" fill="none" xmlns="http://www.w3.org/2000/svg">
<path d="M59.6822 0L3 0C1.34315 0 0 1.34315 0 3L0 17C0 18.6569 1.34315 20 3 20L59.6822 20C61.339 20 62.6822 18.6569 62.6822 17V3C62.6822 1.34315 61.339 0 59.6822 0Z" fill="#12275C"/>
<path d="M12.8756 4.46667L18.1756 16H15.3422L13.9256 12.9167H9.53389L8.05055 16H6.16722L11.6756 4.46667H12.8756ZM10.0589 11.8667H13.4589L11.7839 8.21667L10.0589 11.8667ZM23.7739 16.1667C23.0961 16.1667 22.5017 16.0889 21.9906 15.9333C21.485 15.7722 21.0545 15.5528 20.6989 15.275C20.3434 14.9972 20.06 14.6667 19.8489 14.2833C19.6378 13.8944 19.4934 13.4694 19.4156 13.0083H21.3406C21.4073 13.2917 21.5045 13.5556 21.6323 13.8C21.76 14.0444 21.9211 14.2583 22.1156 14.4417C22.3156 14.6194 22.5489 14.7611 22.8156 14.8667C23.0878 14.9667 23.4017 15.0167 23.7573 15.0167C23.9906 15.0167 24.2211 14.9917 24.4489 14.9417C24.6823 14.8917 24.8906 14.8111 25.0739 14.7C25.2573 14.5833 25.4045 14.4361 25.5156 14.2583C25.6267 14.075 25.6823 13.85 25.6823 13.5833C25.6823 13.25 25.5961 12.9528 25.4239 12.6917C25.2517 12.4306 25.0239 12.1944 24.7406 11.9833C24.4573 11.7667 24.135 11.5667 23.7739 11.3833C23.4128 11.2 23.0434 11.0167 22.6656 10.8333C22.2878 10.6444 21.9184 10.4472 21.5573 10.2417C21.1961 10.0361 20.8739 9.80833 20.5906 9.55833C20.3073 9.30278 20.0795 9.01667 19.9073 8.7C19.735 8.37778 19.6489 8.01111 19.6489 7.6C19.6489 7.15 19.7461 6.73611 19.9406 6.35833C20.1406 5.975 20.4267 5.64444 20.7989 5.36667C21.1711 5.08333 21.6267 4.86389 22.1656 4.70833C22.7045 4.54722 23.3184 4.46667 24.0073 4.46667C24.5739 4.46667 25.0878 4.54444 25.5489 4.7C26.01 4.85556 26.4156 5.07222 26.7656 5.35C27.1211 5.62222 27.4184 5.94444 27.6573 6.31667C27.8961 6.68333 28.0795 7.07778 28.2073 7.5H26.4656C26.3656 7.23333 26.2489 6.97778 26.1156 6.73333C25.9823 6.48889 25.8184 6.275 25.6239 6.09167C25.4295 5.90833 25.1934 5.76389 24.9156 5.65833C24.6378 5.54722 24.3073 5.49167 23.9239 5.49167C23.5628 5.49167 23.2573 5.53889 23.0073 5.63333C22.7628 5.72778 22.5656 5.85 22.4156 6C22.2656 6.14444 22.1573 6.30833 22.0906 6.49167C22.0239 6.66944 21.9906 6.84444 21.9906 7.01667C21.9906 7.31667 22.0795 7.58889 22.2573 7.83333C22.435 8.07778 22.6684 8.30556 22.9573 8.51667C23.2517 8.72778 23.585 8.93056 23.9573 9.125C24.3295 9.31389 24.7073 9.50556 25.0906 9.7C25.4795 9.89444 25.86 10.1 26.2323 10.3167C26.6045 10.5278 26.935 10.7611 27.2239 11.0167C27.5184 11.2722 27.7545 11.5556 27.9323 11.8667C28.11 12.1778 28.1989 12.5278 28.1989 12.9167C28.1989 13.3778 28.1045 13.8056 27.9156 14.2C27.7267 14.5944 27.4461 14.9389 27.0739 15.2333C26.7017 15.5222 26.2378 15.75 25.6823 15.9167C25.1323 16.0833 24.4961 16.1667 23.7739 16.1667ZM40.2976 4.7V5.66667H36.3893V16H33.6226V5.66667H29.706V4.7H40.2976ZM42.1108 4.7L44.8108 4.7L48.7191 12.4167L52.5691 4.7H55.2108V16H52.4441V8.63333L48.7524 16H47.6858L43.8691 8.55V16H42.1108V4.7Z" fill="white"/>
</svg>
